<?xml version="1.0" ?><!DOCTYPE svg  PUBLIC '-//W3C//DTD SVG 1.1//EN'  'http://www.w3.org/Graphics/SVG/1.1/DTD/svg11.dtd'><svg enable-background="new 0 0 4096 4096" height="4096px" id="Ebene_1" version="1.1" viewBox="0 0 4096 4096" width="4096px" xml:space="preserve" xmlns="http://www.w3.org/2000/svg" xmlns:xlink="http://www.w3.org/1999/xlink"><g id="Backup"/><g id="Wintersport"><g id="snowboard"/><g id="skitouren"/><g id="Ski_nordisch"/><g id="rodeln"/><g id="Freeriden"/><g id="Eilsaufen"/><g id="Eishockey"/><g id="Biathlon"/></g><g id="Motorsport"><g id="Motorradsport"/><g id="Motorbootsport"/><g id="Kartsport"/><g id="Autorennsport"/></g><g id="Funsport"><g id="Inlineksaten"/><g id="Skateboard"/></g><g id="Bergsport"><g id="abseilen"/><g id="KLettersteig"/><g id="Klettern"/><g id="expeditionen"/><g id="Bergsteigen"/><g id="Bouldern"/></g><g id="Wassersport"><g id="Windsurfen"/><g id="Wakeboarden"/><g id="Tauchen"/><g id="Surfen"/><g id="SUPen"/><g id="Segeln"/><g id="Rudern"/><g id="Kitesurfen"/></g><g id="Radsport_1_"><g id="Spinning"/><g id="Rennrad"/><g id="mountainbike"/></g><g id="mehr_Sport"><g id="Triathlon_1_"/><g id="Tanzen"/><g id="Schießsport"/><g id="Leichtathletik"/><g id="Kampsport"/><g id="Jagdsport"/><g id="Extremsport"/></g><g id="Flugsport"><g id="Segelfliegen"/><g id="Paragleiten"><g><path d="M2048,453.156c-797.563,0-1444.109,230.922-1444.109,515.75c0,53.906,23.25,105.892,66.203,154.719     c8.983-10.202,19.078-20.219,29.733-30.155l1141.876,958.141v51.969h412.594v-51.905l1143.672-956.453     c9.952,9.358,19.452,18.828,27.922,28.438c42.953-48.844,66.203-100.813,66.203-154.734     C3492.094,684.094,2845.563,453.156,2048,453.156z M2864.938,853.015L2265.86,1965.594l354.797-1160.828     C2706.75,818.094,2788.5,834.281,2864.938,853.015z M2244.891,1963.562L2353.563,774.25     c85.203,6.548,167.563,15.828,246.453,27.5L2244.891,1963.562z M2885.547,858.298c95.797,24.422,182.875,52.891,259.266,84.719     l-861.688,1034L2885.547,858.298z M2332.952,772.703l-112.172,1227.703h-345.578L1763,772.703     c92.155-6.594,187.405-10.094,284.983-10.094C2145.531,762.609,2240.813,766.109,2332.952,772.703z M1210.422,858.298     l602.406,1118.733L951.188,943.015C1027.577,911.173,1114.672,882.703,1210.422,858.298z M1475.328,804.765l354.78,1160.828     L1231.031,853.015C1307.469,834.281,1389.235,818.094,1475.328,804.765z M1495.985,801.75     c78.875-11.672,161.234-20.952,246.438-27.5l108.688,1189.313L1495.985,801.75z M931.36,951.437l857.188,1028.641     L715.375,1079.594C769.922,1033.031,842.969,989.937,931.36,951.437z M2306.766,1980.906l857.875-1029.453     c89.406,38.922,163.188,82.578,217.906,129.781L2306.766,1980.906z"/><path d="M2217.281,2123.173c-22.25,0-40.313,18.063-40.313,40.313v150.313l-91.563,91.547h-74.859L1919,2313.798v-150.313     c0-22.25-18.047-40.313-40.313-40.313s-40.313,18.063-40.313,40.313v161.219c0,3.563,0.609,6.906,1.453,10.188     c0.734,9.188,4.469,18.172,11.5,25.25l114.017,114.017c0.594,0.594,1.344,1.077,2,1.641v230.281     c-3.438,4.094-6.156,8.906-7.828,14.344l-56.672,186.984c-4.078,6.344-6.531,13.813-6.531,21.905v161.22     c0,22.266,18.047,40.313,40.313,40.313c22.266,0,40.313-18.047,40.313-40.313v-150.595c0.453-1.094,0.938-2.125,1.313-3.28     l38.892-128.281h43.266l46.298,94.094c0.202,0.438,0.5,0.875,0.766,1.297v146.484c0,22.233,18.031,40.281,40.297,40.281     c22.267,0,40.313-18.048,40.313-40.281V2889c0-11.391-4.813-21.672-12.47-29l-46.983-95.625v-288.578     c0.625-0.563,1.375-1.03,2.017-1.641l113.983-114.016c7.047-7.078,10.767-16.031,11.531-25.25     c0.844-3.281,1.438-6.625,1.438-10.188v-161.219C2257.594,2141.234,2239.547,2123.173,2217.281,2123.173z"/><path d="M2048,2203.798c44.516,0,80.625,36.094,80.625,80.625c0,44.53-36.109,80.608-80.625,80.608     c-44.531,0-80.625-36.078-80.625-80.608C1967.375,2239.891,2003.469,2203.798,2048,2203.798z"/></g></g><g id="Drachenfliegen"/><g id="Ballon_fahren"/></g><g id="Ballsport"><g id="Volleyball"/><g id="Tischntennis"/><g id="Tennis"/><g id="Squash"/><g id="Handball"/><g id="Bowling"/><g id="Basketball"/><g id="Badminton"/></g><g id="Hauptsportarten"><g id="Ski_Alpin"/><g id="Golf"/><g id="Triathlon"/><g id="Radsport_2_"/><g id="Nordic_Walking"/><g id="Funsport_1_"/><g id="wandern"/><g id="Fußball"/><g id="Fitnesstraining"/><g id="Laufen"/><g id="Schwimmen_1_"/></g><g id="BEschriftung"/></svg>