<?xml version="1.0"?>
<svg xmlns:rdf="http://www.w3.org/1999/02/22-rdf-syntax-ns#" xmlns="http://www.w3.org/2000/svg" xmlns:cc="http://web.resource.org/cc/" xmlns:xlink="http://www.w3.org/1999/xlink" xmlns:dc="http://purl.org/dc/elements/1.1/" xmlns:svg="http://www.w3.org/2000/svg" id="Layer_1" xml:space="preserve" viewBox="0 0 720 720" y="0px" version="1.1" enable-background="new 0 0 720 720" x="0px">
		<path stroke-linejoin="round" stroke="#000" stroke-width="1.172" stroke-linecap="round" d="m289.54 272.96c12.968 0 23.486 10.541 23.486 23.508 0-12.967 10.507-23.508 23.485-23.508s23.48 10.54 23.48 23.5c0-12.967 10.508-23.508 23.508-23.508 12.979 0 23.485 10.541 23.485 23.508 0-12.967 10.508-23.508 23.509-23.508 12.957 0 23.463 10.541 23.463 23.508 0-51.893-42.072-93.965-93.965-93.965-51.892 0-93.965 42.072-93.965 93.965 0-12.96 10.51-23.5 23.5-23.5z"/>
	<polyline stroke-linejoin="round" fill="none" stroke="#000" stroke-linecap="round" stroke-width="1.172" points="453.96 296.46 360 489.5 406.99 296.46"/>
	<polyline stroke-linejoin="round" fill="none" stroke="#000" stroke-linecap="round" stroke-width="1.172" points="266.04 296.46 360 489.5 313.03 296.46"/>
		<line stroke-linejoin="round" x1="360" x2="360" stroke="#000" stroke-linecap="round" stroke-width="1.172" y1="296.46" y2="489.5" fill="none"/>
<rect stroke-linejoin="round" height="48.996" width="48.996" stroke="#000" stroke-linecap="round" y="481" x="335.5" stroke-width="1.172"/>
<metadata><rdf:RDF><cc:Work><dc:format>image/svg+xml</dc:format><dc:type rdf:resource="http://purl.org/dc/dcmitype/StillImage"/><cc:license rdf:resource="http://creativecommons.org/licenses/publicdomain/"/><dc:publisher><cc:Agent rdf:about="http://openclipart.org/"><dc:title>Openclipart</dc:title></cc:Agent></dc:publisher><dc:title>Parachute</dc:title><dc:date>2011-03-17T23:32:32</dc:date><dc:description>Parachute illustration based on image from a public domain US military crest.</dc:description><dc:source>http://openclipart.org/detail/128119/parachute-by-jgm104</dc:source><dc:creator><cc:Agent><dc:title>jgm104</dc:title></cc:Agent></dc:creator><dc:subject><rdf:Bag><rdf:li>clip art</rdf:li><rdf:li>clipart</rdf:li><rdf:li>crest</rdf:li><rdf:li>deliver</rdf:li><rdf:li>drop</rdf:li><rdf:li>illustration</rdf:li><rdf:li>military</rdf:li><rdf:li>parachute</rdf:li><rdf:li>ship</rdf:li><rdf:li>supplies</rdf:li></rdf:Bag></dc:subject></cc:Work><cc:License rdf:about="http://creativecommons.org/licenses/publicdomain/"><cc:permits rdf:resource="http://creativecommons.org/ns#Reproduction"/><cc:permits rdf:resource="http://creativecommons.org/ns#Distribution"/><cc:permits rdf:resource="http://creativecommons.org/ns#DerivativeWorks"/></cc:License></rdf:RDF></metadata></svg>
