<?xml version="1.0" ?><svg height="512" id="svg2" style="fill-rule:evenodd;stroke-width:0.50099999;stroke-linejoin:bevel;overflow:visible" version="1.1" viewBox="0 0 409.6 409.6" width="512" xmlns="http://www.w3.org/2000/svg" xmlns:cc="http://creativecommons.org/ns#" xmlns:dc="http://purl.org/dc/elements/1.1/" xmlns:rdf="http://www.w3.org/1999/02/22-rdf-syntax-ns#" xmlns:svg="http://www.w3.org/2000/svg"><defs id="defs4"><marker id="DefaultArrow2" markerHeight="1" markerUnits="strokeWidth" markerWidth="1" orient="auto" style="overflow:visible" viewBox="0 0 1 1"><g id="g7" transform="scale(0.00925926,0.00925926)"><path d="M -9,54 -9,-54 117,0 z" id="path9"/></g></marker><marker id="DefaultArrow3" markerHeight="1" markerUnits="strokeWidth" markerWidth="1" orient="auto" style="overflow:visible" viewBox="0 0 1 1"><g id="g12" transform="scale(0.00925926,0.00925926)"><path d="M -27,54 -9,0 -27,-54 135,0 z" id="path14"/></g></marker><marker id="DefaultArrow4" markerHeight="1" markerUnits="strokeWidth" markerWidth="1" orient="auto" style="overflow:visible" viewBox="0 0 1 1"><g id="g17" transform="scale(0.00925926,0.00925926)"><path d="m -9,0 0,-45 c 0,-6.708 11.808,-11.58 18,-9 l 108,45 c 3.916,1.631 9,4.758 9,9 0,4.242 -5.084,7.369 -9,9 L 9,54 C 2.808,56.58 -9,51.708 -9,45 z" id="path19"/></g></marker><marker id="DefaultArrow5" markerHeight="1" markerUnits="strokeWidth" markerWidth="1" orient="auto" style="overflow:visible" viewBox="0 0 1 1"><g id="g22" transform="scale(0.00925926,0.00925926)"><path d="M -54,0 C -54,29.807 -29.807,54 0,54 29.807,54 54,29.807 54,0 54,-29.807 29.807,-54 0,-54 -29.807,-54 -54,-29.807 -54,0 z" id="path24"/></g></marker><marker id="DefaultArrow6" markerHeight="1" markerUnits="strokeWidth" markerWidth="1" orient="auto" style="overflow:visible" viewBox="0 0 1 1"><g id="g27" transform="scale(0.00925926,0.00925926)"><path d="M -63,0 0,63 63,0 0,-63 z" id="path29"/></g></marker><marker id="DefaultArrow7" markerHeight="1" markerUnits="strokeWidth" markerWidth="1" orient="auto" style="overflow:visible" viewBox="0 0 1 1"><g id="g32" transform="scale(0.00925926,0.00925926)"><path d="m 18,-54 90,0 L 63,0 108,54 18,54 -36,0 z" id="path34"/></g></marker><marker id="DefaultArrow8" markerHeight="1" markerUnits="strokeWidth" markerWidth="1" orient="auto" style="overflow:visible" viewBox="0 0 1 1"><g id="g37" transform="scale(0.00925926,0.00925926)"><path d="m -36,0 54,-54 36,0 -36,36 9,0 36,-36 36,0 -36,36 9,0 36,-36 36,0 -54,54 54,54 -36,0 -36,-36 -9,0 36,36 -36,0 -36,-36 -9,0 36,36 -36,0 z" id="path39"/></g></marker><marker id="DefaultArrow9" markerHeight="1" markerUnits="strokeWidth" markerWidth="1" orient="auto" style="overflow:visible" viewBox="0 0 1 1"><g id="g42" transform="scale(0.00925926,0.00925926)"><path d="M 0,45 -45,0 0,-45 45,0 z M 0,63 -63,0 0,-63 63,0 z" id="path44"/></g></marker><filter color-interpolation-filters="sRGB" id="StainedFilter"><feBlend id="feBlend47" in="SourceGraphic" in2="BackgroundImage" mode="multiply" result="blend"/><feComposite id="feComposite49" in="blend" in2="SourceAlpha" operator="in" result="comp"/></filter><filter color-interpolation-filters="sRGB" id="BleachFilter"><feBlend id="feBlend52" in="SourceGraphic" in2="BackgroundImage" mode="screen" result="blend"/><feComposite id="feComposite54" in="blend" in2="SourceAlpha" operator="in" result="comp"/></filter><filter color-interpolation-filters="sRGB" id="InvertTransparencyBitmapFilter"><feComponentTransfer id="feComponentTransfer57"><feFuncR amplitude="1.055" exponent=".416666666" id="feFuncR59" offset="-0.055" type="gamma"/><feFuncG amplitude="1.055" exponent=".416666666" id="feFuncG61" offset="-0.055" type="gamma"/><feFuncB amplitude="1.055" exponent=".416666666" id="feFuncB63" offset="-0.055" type="gamma"/></feComponentTransfer><feComponentTransfer id="feComponentTransfer65"><feFuncR id="feFuncR67" intercept="1" slope="-1" type="linear"/><feFuncG id="feFuncG69" intercept="1" slope="-1" type="linear"/><feFuncB id="feFuncB71" intercept="1" slope="-1" type="linear"/><feFuncA id="feFuncA73" intercept="0" slope="1" type="linear"/></feComponentTransfer><feComponentTransfer id="feComponentTransfer75"><feFuncR amplitude="1" exponent="2.4" id="feFuncR77" offset="0" type="gamma"/><feFuncG amplitude="1" exponent="2.4" id="feFuncG79" offset="0" type="gamma"/><feFuncB amplitude="1" exponent="2.4" id="feFuncB81" offset="0" type="gamma"/></feComponentTransfer></filter></defs><g id="g3069" transform="matrix(11.377778,0,0,11.377778,-661.33335,-247.46668)"><g id="Document" style="font-size:16px;fill:none;stroke:#000000;font-family:Times New Roman" transform="scale(1,-1)"><g id="Spread" transform="translate(0,-360)"><g id="Layer 1"><path d="m 72.53,309.899 -10.28,14.851 0,10e-4 c 0,7.451 6.216,13.499 13.876,13.499 7.659,0 13.875,-6.048 13.874,-13.5 L 79.719,309.899 c -0.109,0.193 -0.233,0.376 -0.371,0.548 l 9.902,14.303 c 0,1.656 -1.344,3 -3,3 -1.656,0 -3,-1.344 -3,-3 L 78.75,312 c -0.157,0.219 -0.547,0.575 -0.75,0.75 l 4.5,12 c 0,1.656 -1.344,3 -3,3 -1.656,0 -3,-1.344 -3,-3 l 0,-11.271 c -0.124,0.013 -0.249,0.021 -0.375,0.021 -0.127,0 -0.252,-0.008 -0.376,-0.021 l 0.001,11.271 c 0,1.656 -1.344,3 -3,3 -1.656,0 -3,-1.344 -3,-3 l 4.5,-12 C 74.046,312.574 73.657,312.219 73.5,312 L 69,324.75 c 0,1.656 -1.344,3 -3,3 -1.656,0 -3,-1.344 -3,-3 l 9.901,-14.303 c -0.138,-0.172 -0.262,-0.355 -0.371,-0.548 z" id="path86" style="fill:#000000;stroke:none;stroke-width:0.036;marker-start:none;marker-end:none"/><path d="m 74.251,303.036 0,2.179 c 0,0.059 0.006,0.117 0.018,0.172 -0.012,0.064 -0.018,0.131 -0.018,0.199 l 0,0.509 c -0.325,0.157 -0.661,0.491 -0.851,0.878 l -1.258,2.553 c -0.264,0.537 -0.148,0.973 0.258,0.973 l 10e-4,0 c 0.406,0 0.952,-0.436 1.216,-0.973 l 0.845,-1.719 c 0.198,0.268 0.516,0.443 0.874,0.443 l 0.788,0 c -1.035,0 -1.875,0.84 -1.875,1.875 0,1.035 0.84,1.875 1.875,1.875 1.035,0 1.875,-0.84 1.875,-1.875 0,-1.035 -0.84,-1.875 -1.875,-1.875 l 0.791,0 c 0.357,0 0.675,-0.174 0.872,-0.442 l 0.846,1.718 c 0.264,0.537 0.81,0.973 1.216,0.973 l 10e-4,0 c 0.406,0 0.522,-0.436 0.258,-0.973 l -1.258,-2.553 c -0.19,-0.387 -0.526,-0.721 -0.851,-0.878 L 78,305.586 c 0,-0.068 -0.007,-0.135 -0.019,-0.199 0.012,-0.055 0.019,-0.113 0.019,-0.172 l 0,-2.179 c 0,-0.433 -0.336,-0.786 -0.749,-0.786 l -0.001,0 c -0.413,0 -0.749,0.353 -0.749,0.786 l 0,1.465 -0.751,0 0,-1.465 c 0,-0.433 -0.336,-0.786 -0.749,-0.786 l -0.001,0 c -0.413,0 -0.749,0.353 -0.749,0.786 z" id="path88" style="fill:#000000;stroke:none;stroke-width:0.03;marker-start:none;marker-end:none"/></g></g></g></g></svg>