<?xml version="1.0" encoding="UTF-8" standalone="no"?>
<!-- Generator: Adobe Illustrator 15.1.0, SVG Export Plug-In . SVG Version: 6.00 Build 0)  -->

<svg
   xmlns:dc="http://purl.org/dc/elements/1.1/"
   xmlns:cc="http://creativecommons.org/ns#"
   xmlns:rdf="http://www.w3.org/1999/02/22-rdf-syntax-ns#"
   xmlns:svg="http://www.w3.org/2000/svg"
   xmlns="http://www.w3.org/2000/svg"
   xmlns:sodipodi="http://sodipodi.sourceforge.net/DTD/sodipodi-0.dtd"
   xmlns:inkscape="http://www.inkscape.org/namespaces/inkscape"
   version="1.1"
   id="Layer_1"
   x="0px"
   y="0px"
   width="53.993"
   height="47.993999"
   viewBox="0 0 53.993 47.993999"
   enable-background="new 0 0 100 100"
   xml:space="preserve"
   inkscape:version="0.48.4 r9939"
   sodipodi:docname="Cloud-Sun.svg"><metadata
     id="metadata9"><rdf:RDF><cc:Work
         rdf:about=""><dc:format>image/svg+xml</dc:format><dc:type
           rdf:resource="http://purl.org/dc/dcmitype/StillImage" /></cc:Work></rdf:RDF></metadata><defs
     id="defs7" /><sodipodi:namedview
     pagecolor="#ffffff"
     bordercolor="#666666"
     borderopacity="1"
     objecttolerance="10"
     gridtolerance="10"
     guidetolerance="10"
     inkscape:pageopacity="0"
     inkscape:pageshadow="2"
     inkscape:window-width="1916"
     inkscape:window-height="1163"
     id="namedview5"
     showgrid="false"
     fit-margin-top="0"
     fit-margin-left="0"
     fit-margin-right="0"
     fit-margin-bottom="0"
     inkscape:zoom="2.36"
     inkscape:cx="22.052"
     inkscape:cy="15.639"
     inkscape:window-x="1920"
     inkscape:window-y="33"
     inkscape:window-maximized="0"
     inkscape:current-layer="Layer_1" /><path
     clip-rule="evenodd"
     d="m 51.993,25.996 h -4 c -1.104,0 -2,-0.895 -2,-2 0,-1.104 0.896,-1.998 2,-1.998 h 4 c 1.104,0 2,0.895 2,1.998 0,1.105 -0.896,2 -2,2 z M 44.136,12.684 c -0.781,0.781 -2.047,0.781 -2.828,0 -0.781,-0.78 -0.781,-2.047 0,-2.827 l 2.828,-2.828 c 0.781,-0.781 2.047,-0.781 2.828,0 0.781,0.78 0.781,2.047 0,2.828 l -2.828,2.827 z m -2.947,15.607 0,0 c 1.749,2.086 2.806,4.77 2.806,7.705 0,6.625 -5.372,11.998 -11.999,11.998 -2.775,0 -12.801,0 -15.998,0 C 7.163,47.994 0,40.832 0,31.996 0,23.16 7.163,15.998 15.998,15.998 c 1.572,0 3.09,0.232 4.523,0.654 2.195,-2.827 5.618,-4.654 9.475,-4.654 6.627,0 11.999,5.373 11.999,11.998 -10e-4,1.515 -0.294,2.961 -0.806,4.295 z m -37.19,3.705 c 0,6.627 5.371,11.998 11.998,11.998 3.616,0 12.979,0 15.998,0 4.418,0 7.999,-3.582 7.999,-7.998 0,-4.418 -3.581,-8 -7.999,-8 -1.6,0 -3.083,0.482 -4.333,1.291 -1.231,-5.316 -5.974,-9.289 -11.665,-9.289 -6.627,0 -11.998,5.371 -11.998,11.998 z M 29.995,15.998 c -2.212,0 -4.215,0.898 -5.662,2.349 2.34,1.436 4.285,3.453 5.629,5.854 0.664,-0.113 1.337,-0.205 2.033,-0.205 2.125,0 4.119,0.559 5.85,1.527 l 0,0 c 0.096,-0.494 0.15,-1.004 0.15,-1.527 0,-4.416 -3.582,-7.998 -8,-7.998 z m 0,-8 c -1.104,0 -1.999,-0.895 -1.999,-1.999 V 2 c 0,-1.105 0.896,-2 1.999,-2 1.105,0 2,0.895 2,2 v 3.999 c 0,1.105 -0.894,1.999 -2,1.999 z m -14.14,4.686 -2.827,-2.827 c -0.781,-0.781 -0.781,-2.048 0,-2.828 0.78,-0.781 2.047,-0.781 2.827,0 l 2.828,2.828 c 0.781,0.78 0.781,2.047 0,2.827 -0.78,0.781 -2.047,0.781 -2.828,0 z"
     id="path3"
     inkscape:connector-curvature="0"
     style="fill-rule:evenodd" /></svg>