<?xml version="1.0" encoding="UTF-8" standalone="no"?>
<!-- Generator: Adobe Illustrator 15.1.0, SVG Export Plug-In . SVG Version: 6.00 Build 0)  -->

<svg
   xmlns:dc="http://purl.org/dc/elements/1.1/"
   xmlns:cc="http://creativecommons.org/ns#"
   xmlns:rdf="http://www.w3.org/1999/02/22-rdf-syntax-ns#"
   xmlns:svg="http://www.w3.org/2000/svg"
   xmlns="http://www.w3.org/2000/svg"
   xmlns:sodipodi="http://sodipodi.sourceforge.net/DTD/sodipodi-0.dtd"
   xmlns:inkscape="http://www.inkscape.org/namespaces/inkscape"
   version="1.1"
   id="Layer_1"
   x="0px"
   y="0px"
   width="47.993999"
   height="35.994999"
   viewBox="0 0 47.993999 35.994999"
   enable-background="new 0 0 100 100"
   xml:space="preserve"
   inkscape:version="0.48.4 r9939"
   sodipodi:docname="Sunset.svg"><metadata
     id="metadata9"><rdf:RDF><cc:Work
         rdf:about=""><dc:format>image/svg+xml</dc:format><dc:type
           rdf:resource="http://purl.org/dc/dcmitype/StillImage" /><dc:title></dc:title></cc:Work></rdf:RDF></metadata><defs
     id="defs7" /><sodipodi:namedview
     pagecolor="#ffffff"
     bordercolor="#666666"
     borderopacity="1"
     objecttolerance="10"
     gridtolerance="10"
     guidetolerance="10"
     inkscape:pageopacity="0"
     inkscape:pageshadow="2"
     inkscape:window-width="1916"
     inkscape:window-height="1163"
     id="namedview5"
     showgrid="false"
     fit-margin-top="0"
     fit-margin-left="0"
     fit-margin-right="0"
     fit-margin-bottom="0"
     inkscape:zoom="2.36"
     inkscape:cx="-53.545373"
     inkscape:cy="17.998"
     inkscape:window-x="1920"
     inkscape:window-y="33"
     inkscape:window-maximized="0"
     inkscape:current-layer="Layer_1" /><path
     clip-rule="evenodd"
     d="m 45.995,25.997 h -4 c -1.104,0 -1.999,-0.896 -1.999,-2 0,-1.104 0.895,-2 1.999,-2 h 4 c 1.104,0 1.999,0.896 1.999,2 0,1.104 -0.894,2 -1.999,2 z M 38.139,12.685 c -0.781,0.781 -2.048,0.781 -2.828,0 -0.781,-0.781 -0.781,-2.047 0,-2.828 l 2.828,-2.828 c 0.78,-0.78 2.047,-0.78 2.827,0 0.781,0.781 0.781,2.047 0,2.828 l -2.827,2.828 z m -2.84,15.311 h -4.381 c 0.682,-1.177 1.078,-2.54 1.078,-3.999 0,-4.418 -3.581,-7.999 -7.998,-7.999 -4.418,0 -8,3.581 -8,7.999 0,1.459 0.397,2.822 1.08,3.999 h -4.382 c -0.443,-1.252 -0.697,-2.595 -0.697,-3.999 0,-6.627 5.372,-11.998 11.999,-11.998 6.626,0 11.998,5.371 11.998,11.998 0,1.404 -0.254,2.747 -0.697,3.999 z M 23.998,7.999 c -1.105,0 -2,-0.896 -2,-2 V 2 c 0,-1.104 0.895,-2 2,-2 1.104,0 2,0.896 2,2 v 3.999 c 0,1.104 -0.897,2 -2,2 z M 9.857,12.685 7.029,9.857 c -0.781,-0.781 -0.781,-2.047 0,-2.828 0.781,-0.78 2.047,-0.78 2.828,0 l 2.828,2.828 c 0.781,0.781 0.781,2.047 0,2.828 -0.781,0.781 -2.046,0.781 -2.828,0 z M 8,23.997 c 0,1.104 -0.896,2 -2,2 H 2 c -1.104,0 -2,-0.896 -2,-2 0,-1.104 0.896,-2 2,-2 h 4 c 1.104,0 2,0.896 2,2 z m 15.998,-4 c 0.552,0 1,0.448 1,1 v 3.828 l 2.535,-2.535 c 0.391,-0.391 1.023,-0.391 1.414,0 0.391,0.391 0.391,1.023 0,1.414 l -4.242,4.242 c -0.391,0.391 -1.023,0.391 -1.414,0 l -4.242,-4.242 c -0.391,-0.391 -0.391,-1.023 0,-1.414 0.391,-0.391 1.023,-0.391 1.414,0 l 2.535,2.535 v -3.828 c 0,-0.552 0.447,-1 1,-1 z m -9.999,11.999 h 19.997 c 1.104,0 2,0.896 2,2 0,1.104 -0.896,1.999 -2,1.999 H 13.999 c -1.104,0 -2,-0.895 -2,-1.999 0,-1.104 0.895,-2 2,-2 z"
     id="path3"
     inkscape:connector-curvature="0"
     style="fill-rule:evenodd" /></svg>